<mxfile host="app.diagrams.net" modified="2022-09-07T02:45:27.162Z" agent="5.0 (Macintosh; Intel Mac OS X 10_15_7) AppleWebKit/537.36 (KHTML, like Gecko) Chrome/105.0.0.0 Safari/537.36" etag="A3mZroSQgXvN73KifBod" version="20.2.8" type="github">
  <diagram id="QpPmT_mGVEs0pewQgkVs" name="Trang-1">
    <mxGraphModel dx="797" dy="628" grid="1" gridSize="10" guides="1" tooltips="1" connect="1" arrows="1" fold="1" page="1" pageScale="1" pageWidth="827" pageHeight="1169" math="0" shadow="0">
      <root>
        <mxCell id="0" />
        <mxCell id="1" parent="0" />
        <mxCell id="Tl1vYp4vrJxFw7Y3Wa-i-1" value="conversations" style="swimlane;fontStyle=0;childLayout=stackLayout;horizontal=1;startSize=30;horizontalStack=0;resizeParent=1;resizeParentMax=0;resizeLast=0;collapsible=1;marginBottom=0;" vertex="1" parent="1">
          <mxGeometry x="230" y="270" width="140" height="250" as="geometry" />
        </mxCell>
        <mxCell id="Tl1vYp4vrJxFw7Y3Wa-i-2" value="isUser: boolean" style="text;strokeColor=default;fillColor=none;align=left;verticalAlign=middle;spacingLeft=4;spacingRight=4;overflow=hidden;points=[[0,0.5],[1,0.5]];portConstraint=eastwest;rotatable=0;" vertex="1" parent="Tl1vYp4vrJxFw7Y3Wa-i-1">
          <mxGeometry y="30" width="140" height="70" as="geometry" />
        </mxCell>
        <mxCell id="Tl1vYp4vrJxFw7Y3Wa-i-3" value="lastMessage: string" style="text;strokeColor=default;fillColor=none;align=left;verticalAlign=middle;spacingLeft=4;spacingRight=4;overflow=hidden;points=[[0,0.5],[1,0.5]];portConstraint=eastwest;rotatable=0;" vertex="1" parent="Tl1vYp4vrJxFw7Y3Wa-i-1">
          <mxGeometry y="100" width="140" height="70" as="geometry" />
        </mxCell>
        <mxCell id="Tl1vYp4vrJxFw7Y3Wa-i-4" value="lastSeen: string" style="text;strokeColor=default;fillColor=none;align=left;verticalAlign=middle;spacingLeft=4;spacingRight=4;overflow=hidden;points=[[0,0.5],[1,0.5]];portConstraint=eastwest;rotatable=0;" vertex="1" parent="Tl1vYp4vrJxFw7Y3Wa-i-1">
          <mxGeometry y="170" width="140" height="80" as="geometry" />
        </mxCell>
        <mxCell id="Tl1vYp4vrJxFw7Y3Wa-i-13" value="isUser&lt;br&gt;&amp;nbsp; &amp;nbsp; - true: người nhắn cuối cùng là user&lt;br&gt;&amp;nbsp; &amp;nbsp; - false: ngược lại&lt;br&gt;&amp;nbsp;" style="text;html=1;strokeColor=#d6b656;fillColor=#fff2cc;align=left;verticalAlign=middle;whiteSpace=wrap;rounded=0;" vertex="1" parent="1">
          <mxGeometry x="10" y="300" width="210" height="60" as="geometry" />
        </mxCell>
        <mxCell id="Tl1vYp4vrJxFw7Y3Wa-i-14" value="&lt;span style=&quot;color: rgba(0, 0, 0, 0); font-family: monospace; font-size: 0px;&quot;&gt;&amp;nbsp;%3CmxGraphModel%3E%3Croot%3E%3CmxCell%20id%3D%220%22%2F%3E%3CmxCell%20id%3D%221%22%20parent%3D%220%22%2F%3E%3CmxCell%20id%3D%222%22%20value%3D%22isUser%3A%20ki%E1%BB%83u%20d%E1%BB%AF%20li%E1%BB%87u%20boolean%26lt%3Bbr%26gt%3B%26amp%3Bnbsp%3B%20%26amp%3Bnbsp%3B%20true%3A%20ng%C6%B0%E1%BB%9Di%20nh%E1%BA%AFn%20cu%E1%BB%91i%20c%C3%B9ng%20l%C3%A0%20user%26lt%3Bbr%26gt%3B%26amp%3Bnbsp%3B%20%26amp%3Bnbsp%3B%20false%3A%20ng%C6%B0%E1%BB%A3c%20l%E1%BA%A1i%26lt%3Bbr%26gt%3B%26amp%3Bnbsp%3B%22%20style%3D%22text%3Bhtml%3D1%3BstrokeColor%3D%23d6b656%3BfillColor%3D%23fff2cc%3Balign%3Dleft%3BverticalAlign%3Dmiddle%3BwhiteSpace%3Dwrap%3Brounded%3D0%3B%22%20vertex%3D%221%22%20parent%3D%221%22%3E%3CmxGeometry%20x%3D%2210%22%20y%3D%22270%22%20width%3D%22200%22%20height%3D%2260%22%20as%3D%22geometry%22%2F%3E%3C%2FmxCell%3E%3C%2Froot%3E%3C%2FmxGraphModel%3E&lt;/span&gt;&lt;span style=&quot;&quot;&gt;lastMessage&lt;/span&gt;&lt;br&gt;&amp;nbsp; &amp;nbsp; - mô tả: tin nhắn cuối cùng của cuộc hội thoại&lt;br&gt;&amp;nbsp;" style="text;html=1;strokeColor=#d6b656;fillColor=#fff2cc;align=left;verticalAlign=top;whiteSpace=wrap;rounded=0;sketch=0;" vertex="1" parent="1">
          <mxGeometry x="10" y="380" width="200" height="50" as="geometry" />
        </mxCell>
        <mxCell id="Tl1vYp4vrJxFw7Y3Wa-i-15" value="&lt;span style=&quot;color: rgba(0, 0, 0, 0); font-family: monospace; font-size: 0px;&quot;&gt;&amp;nbsp;%3CmxGraphModel%3E%3Croot%3E%3CmxCell%20id%3D%220%22%2F%3E%3CmxCell%20id%3D%221%22%20parent%3D%220%22%2F%3E%3CmxCell%20id%3D%222%22%20value%3D%22isUser%3A%20ki%E1%BB%83u%20d%E1%BB%AF%20li%E1%BB%87u%20boolean%26lt%3Bbr%26gt%3B%26amp%3Bnbsp%3B%20%26amp%3Bnbsp%3B%20true%3A%20ng%C6%B0%E1%BB%9Di%20nh%E1%BA%AFn%20cu%E1%BB%91i%20c%C3%B9ng%20l%C3%A0%20user%26lt%3Bbr%26gt%3B%26amp%3Bnbsp%3B%20%26amp%3Bnbsp%3B%20false%3A%20ng%C6%B0%E1%BB%A3c%20l%E1%BA%A1i%26lt%3Bbr%26gt%3B%26amp%3Bnbsp%3B%22%20style%3D%22text%3Bhtml%3D1%3BstrokeColor%3D%23d6b656%3BfillColor%3D%23fff2cc%3Balign%3Dleft%3BverticalAlign%3Dmiddle%3BwhiteSpace%3Dwrap%3Brounded%3D0%3B%22%20vertex%3D%221%22%20parent%3D%221%22%3E%3CmxGeometry%20x%3D%2210%22%20y%3D%22270%22%20width%3D%22200%22%20height%3D%2260%22%20as%3D%22geometry%22%2F%3E%3C%2FmxCell%3E%3C%2Froot%3E%3C%2FmxGraphModel%&lt;/span&gt;&lt;span style=&quot;&quot;&gt;lastSeen&lt;/span&gt;&lt;br&gt;&amp;nbsp; &amp;nbsp; - mô tả: thời gian tin nhắn cuối cùng parse Date dạng (YYYY-MM-DD HH :&amp;nbsp; mm : ss)&lt;br&gt;&amp;nbsp;" style="text;html=1;strokeColor=#d6b656;fillColor=#fff2cc;align=left;verticalAlign=top;whiteSpace=wrap;rounded=0;sketch=0;" vertex="1" parent="1">
          <mxGeometry x="10" y="450" width="200" height="70" as="geometry" />
        </mxCell>
        <mxCell id="Tl1vYp4vrJxFw7Y3Wa-i-17" value="users: array" style="text;strokeColor=default;fillColor=none;align=left;verticalAlign=middle;spacingLeft=4;spacingRight=4;overflow=hidden;points=[[0,0.5],[1,0.5]];portConstraint=eastwest;rotatable=0;" vertex="1" parent="1">
          <mxGeometry x="230" y="520" width="140" height="80" as="geometry" />
        </mxCell>
        <mxCell id="Tl1vYp4vrJxFw7Y3Wa-i-18" value="&lt;span style=&quot;color: rgba(0, 0, 0, 0); font-family: monospace; font-size: 0px;&quot;&gt;&amp;nbsp;%3CmxGraphModel%3E%3Croot%3E%3CmxCell%20id%3D%220%22%2F%3E%3CmxCell%20id%3D%221%22%20parent%3D%220%22%2F%3E%3CmxCell%20id%3D%222%22%20value%3D%22isUser%3A%20ki%E1%BB%83u%20d%E1%BB%AF%20li%E1%BB%87u%20boolean%26lt%3Bbr%26gt%3B%26amp%3Bnbsp%3B%20%26amp%3Bnbsp%3B%20true%3A%20ng%C6%B0%E1%BB%9Di%20nh%E1%BA%AFn%20cu%E1%BB%91i%20c%C3%B9ng%20l%C3%A0%20user%26lt%3Bbr%26gt%3B%26amp%3Bnbsp%3B%20%26amp%3Bnbsp%3B%20false%3A%20ng%C6%B0%E1%BB%A3c%20l%E1%BA%A1i%26lt%3Bbr%26gt%3B%26amp%3Bnbsp%3B%22%20style%3D%22text%3Bhtml%3D1%3BstrokeColor%3D%23d6b656%3BfillColor%3D%23fff2cc%3Balign%3Dleft%3BverticalAlign%3Dmiddle%3BwhiteSpace%3Dwrap%3Brounded%3D0%3B%22%20vertex%3D%221%22%20parent%3D%221%22%3E%3CmxGeometry%20x%3D%2210%22%20y%3D%22270%22%20width%3D%22200%22%20height%3D%2260%22%20as%3D%22geometry%22%2F%3E%3C%2FmxCell%3E%3C%2Froot%3E%3C%2FmxGraphModel%3E&lt;/span&gt;&lt;span style=&quot;&quot;&gt;users&lt;/span&gt;&lt;br&gt;&amp;nbsp; &amp;nbsp; - mô tả: chứa thông tin 2 user trong cuộc trò truyện&lt;br&gt;- Đối với khách hàng:&amp;nbsp;&lt;br&gt;ex: [63, {}]. trong đó 63 là id của auth admin, {}&amp;nbsp; full thông tin của khách hàng.&amp;nbsp;&lt;br&gt;- Đối với khách vãng lại:&lt;br&gt;ex [0,{fullName: &#39;0328849286&#39;}]. trong đó 0 là default vì khi khách vãng lai chat chưa chỉ định admin tư vấn khi admin tư vấn chọn cuộc trò chuyện sẽ tự động cập nhật lại.&lt;br&gt;&lt;br&gt;&amp;nbsp;" style="text;html=1;strokeColor=#d6b656;fillColor=#fff2cc;align=left;verticalAlign=top;whiteSpace=wrap;rounded=0;sketch=0;" vertex="1" parent="1">
          <mxGeometry x="10" y="540" width="200" height="200" as="geometry" />
        </mxCell>
      </root>
    </mxGraphModel>
  </diagram>
</mxfile>
